<svg xmlns="http://www.w3.org/2000/svg" xmlns:xlink="http://www.w3.org/1999/xlink" contentStyleType="text/css" data-diagram-type="CLASS" height="985px" preserveAspectRatio="none" style="width:2159px;height:985px;background:#FFFFFF;" version="1.1" viewBox="0 0 2159 985" width="2159px" zoomAndPan="magnify"><title>POS_Project - High-level Architecture</title><defs/><g><g class="title" data-source-line="1"><text fill="#000000" font-family="sans-serif" font-size="14" font-weight="bold" lengthAdjust="spacing" textLength="294.123" x="925.7712" y="22.9951">POS_Project - High-level Architecture</text></g><!--cluster com--><g class="cluster" data-entity="com" data-source-line="4" data-uid="ent0004" id="cluster_com"><path d="M8.5,43.2969 L42.0049,43.2969 A3.75,3.75 0 0 1 44.5049,45.7969 L51.5049,65.5938 L1906.5,65.5938 A2.5,2.5 0 0 1 1909,68.0938 L1909,975.7969 A2.5,2.5 0 0 1 1906.5,978.2969 L8.5,978.2969 A2.5,2.5 0 0 1 6,975.7969 L6,45.7969 A2.5,2.5 0 0 1 8.5,43.2969" fill="none" style="stroke:#000000;stroke-width:1.5;"/><line style="stroke:#000000;stroke-width:1.5;" x1="6" x2="51.5049" y1="65.5938" y2="65.5938"/><text fill="#000000" font-family="sans-serif" font-size="14" font-weight="bold" lengthAdjust="spacing" textLength="32.5049" x="10" y="58.292">com</text></g><!--cluster pos--><g class="cluster" data-entity="pos" data-source-line="4" data-uid="ent0005" id="cluster_pos"><path d="M32.5,86.2969 L61.4727,86.2969 A3.75,3.75 0 0 1 63.9727,88.7969 L70.9727,108.5938 L1882.5,108.5938 A2.5,2.5 0 0 1 1885,111.0938 L1885,951.7969 A2.5,2.5 0 0 1 1882.5,954.2969 L32.5,954.2969 A2.5,2.5 0 0 1 30,951.7969 L30,88.7969 A2.5,2.5 0 0 1 32.5,86.2969" fill="none" style="stroke:#000000;stroke-width:1.5;"/><line style="stroke:#000000;stroke-width:1.5;" x1="30" x2="70.9727" y1="108.5938" y2="108.5938"/><text fill="#000000" font-family="sans-serif" font-size="14" font-weight="bold" lengthAdjust="spacing" textLength="27.9727" x="34" y="101.292">pos</text></g><!--cluster main--><g class="cluster" data-entity="main" data-source-line="3" data-uid="ent0002" id="cluster_main"><path d="M1067.5,129.2969 L1107.3008,129.2969 A3.75,3.75 0 0 1 1109.8008,131.7969 L1116.8008,151.5938 L1186.5,151.5938 A2.5,2.5 0 0 1 1189,154.0938 L1189,225.7969 A2.5,2.5 0 0 1 1186.5,228.2969 L1067.5,228.2969 A2.5,2.5 0 0 1 1065,225.7969 L1065,131.7969 A2.5,2.5 0 0 1 1067.5,129.2969" fill="none" style="stroke:#000000;stroke-width:1.5;"/><line style="stroke:#000000;stroke-width:1.5;" x1="1065" x2="1116.8008" y1="151.5938" y2="151.5938"/><text fill="#000000" font-family="sans-serif" font-size="14" font-weight="bold" lengthAdjust="spacing" textLength="38.8008" x="1069" y="144.292">main</text></g><!--cluster view--><g class="cluster" data-entity="view" data-source-line="7" data-uid="ent0006" id="cluster_view"><path d="M213.5,277.2969 L250.8535,277.2969 A3.75,3.75 0 0 1 253.3535,279.7969 L260.3535,299.5938 L1402.5,299.5938 A2.5,2.5 0 0 1 1405,302.0938 L1405,623.7969 A2.5,2.5 0 0 1 1402.5,626.2969 L213.5,626.2969 A2.5,2.5 0 0 1 211,623.7969 L211,279.7969 A2.5,2.5 0 0 1 213.5,277.2969" fill="none" style="stroke:#000000;stroke-width:1.5;"/><line style="stroke:#000000;stroke-width:1.5;" x1="211" x2="260.3535" y1="299.5938" y2="299.5938"/><text fill="#000000" font-family="sans-serif" font-size="14" font-weight="bold" lengthAdjust="spacing" textLength="36.3535" x="215" y="292.292">view</text></g><!--cluster dao--><g class="cluster" data-entity="dao" data-source-line="19" data-uid="ent0016" id="cluster_dao"><path d="M1573.5,675.2969 L1603.5869,675.2969 A3.75,3.75 0 0 1 1606.0869,677.7969 L1613.0869,697.5938 L1845.5,697.5938 A2.5,2.5 0 0 1 1848,700.0938 L1848,771.7969 A2.5,2.5 0 0 1 1845.5,774.2969 L1573.5,774.2969 A2.5,2.5 0 0 1 1571,771.7969 L1571,677.7969 A2.5,2.5 0 0 1 1573.5,675.2969" fill="none" style="stroke:#000000;stroke-width:1.5;"/><line style="stroke:#000000;stroke-width:1.5;" x1="1571" x2="1613.0869" y1="697.5938" y2="697.5938"/><text fill="#000000" font-family="sans-serif" font-size="14" font-weight="bold" lengthAdjust="spacing" textLength="29.0869" x="1575" y="690.292">dao</text></g><!--cluster model--><g class="cluster" data-entity="model" data-source-line="24" data-uid="ent0019" id="cluster_model"><path d="M1712.5,827.2969 L1762.0215,827.2969 A3.75,3.75 0 0 1 1764.5215,829.7969 L1771.5215,849.5938 L1825.5,849.5938 A2.5,2.5 0 0 1 1828,852.0938 L1828,923.7969 A2.5,2.5 0 0 1 1825.5,926.2969 L1712.5,926.2969 A2.5,2.5 0 0 1 1710,923.7969 L1710,829.7969 A2.5,2.5 0 0 1 1712.5,827.2969" fill="none" style="stroke:#000000;stroke-width:1.5;"/><line style="stroke:#000000;stroke-width:1.5;" x1="1710" x2="1771.5215" y1="849.5938" y2="849.5938"/><text fill="#000000" font-family="sans-serif" font-size="14" font-weight="bold" lengthAdjust="spacing" textLength="48.5215" x="1714" y="842.292">model</text></g><!--cluster connection--><g class="cluster" data-entity="connection" data-source-line="28" data-uid="ent0021" id="cluster_connection"><path d="M999.5,823.2969 L1087.2207,823.2969 A3.75,3.75 0 0 1 1089.7207,825.7969 L1096.7207,845.5938 L1158.5,845.5938 A2.5,2.5 0 0 1 1161,848.0938 L1161,927.7969 A2.5,2.5 0 0 1 1158.5,930.2969 L999.5,930.2969 A2.5,2.5 0 0 1 997,927.7969 L997,825.7969 A2.5,2.5 0 0 1 999.5,823.2969" fill="none" style="stroke:#000000;stroke-width:1.5;"/><line style="stroke:#000000;stroke-width:1.5;" x1="997" x2="1096.7207" y1="845.5938" y2="845.5938"/><text fill="#000000" font-family="sans-serif" font-size="14" font-weight="bold" lengthAdjust="spacing" textLength="86.7207" x="1001" y="838.292">connection</text></g><!--class MainApp--><g class="entity" data-entity="MainApp" data-source-line="4" data-uid="ent0003" id="entity_MainApp"><rect fill="#F1F1F1" height="48" rx="2.5" ry="2.5" style="stroke:#181818;stroke-width:0.5;" width="92.7715" x="1080.5" y="164.2969"/><ellipse cx="1095.5" cy="180.2969" fill="#ADD1B2" rx="11" ry="11" style="stroke:#181818;stroke-width:1;"/><path d="M1098.4688,185.9375 Q1097.8906,186.2344 1097.25,186.375 Q1096.6094,186.5313 1095.9063,186.5313 Q1093.4063,186.5313 1092.0781,184.8906 Q1090.7656,183.2344 1090.7656,180.1094 Q1090.7656,176.9844 1092.0781,175.3281 Q1093.4063,173.6719 1095.9063,173.6719 Q1096.6094,173.6719 1097.25,173.8281 Q1097.9063,173.9844 1098.4688,174.2813 L1098.4688,177 Q1097.8438,176.4219 1097.25,176.1563 Q1096.6563,175.875 1096.0313,175.875 Q1094.6875,175.875 1094,176.9531 Q1093.3125,178.0156 1093.3125,180.1094 Q1093.3125,182.2031 1094,183.2813 Q1094.6875,184.3438 1096.0313,184.3438 Q1096.6563,184.3438 1097.25,184.0781 Q1097.8438,183.7969 1098.4688,183.2188 L1098.4688,185.9375 Z " fill="#000000"/><text fill="#000000" font-family="sans-serif" font-size="14" lengthAdjust="spacing" textLength="60.7715" x="1109.5" y="185.1436">MainApp</text><line style="stroke:#181818;stroke-width:0.5;" x1="1081.5" x2="1172.2715" y1="196.2969" y2="196.2969"/><line style="stroke:#181818;stroke-width:0.5;" x1="1081.5" x2="1172.2715" y1="204.2969" y2="204.2969"/></g><!--class LoginFrame--><g class="entity" data-entity="LoginFrame" data-source-line="8" data-uid="ent0007" id="entity_LoginFrame"><rect fill="#F1F1F1" height="48" rx="2.5" ry="2.5" style="stroke:#181818;stroke-width:0.5;" width="114.6533" x="1069.5" y="312.2969"/><ellipse cx="1084.5" cy="328.2969" fill="#ADD1B2" rx="11" ry="11" style="stroke:#181818;stroke-width:1;"/><path d="M1087.4688,333.9375 Q1086.8906,334.2344 1086.25,334.375 Q1085.6094,334.5313 1084.9063,334.5313 Q1082.4063,334.5313 1081.0781,332.8906 Q1079.7656,331.2344 1079.7656,328.1094 Q1079.7656,324.9844 1081.0781,323.3281 Q1082.4063,321.6719 1084.9063,321.6719 Q1085.6094,321.6719 1086.25,321.8281 Q1086.9063,321.9844 1087.4688,322.2813 L1087.4688,325 Q1086.8438,324.4219 1086.25,324.1563 Q1085.6563,323.875 1085.0313,323.875 Q1083.6875,323.875 1083,324.9531 Q1082.3125,326.0156 1082.3125,328.1094 Q1082.3125,330.2031 1083,331.2813 Q1083.6875,332.3438 1085.0313,332.3438 Q1085.6563,332.3438 1086.25,332.0781 Q1086.8438,331.7969 1087.4688,331.2188 L1087.4688,333.9375 Z " fill="#000000"/><text fill="#000000" font-family="sans-serif" font-size="14" lengthAdjust="spacing" textLength="82.6533" x="1098.5" y="333.1436">LoginFrame</text><line style="stroke:#181818;stroke-width:0.5;" x1="1070.5" x2="1183.1533" y1="344.2969" y2="344.2969"/><line style="stroke:#181818;stroke-width:0.5;" x1="1070.5" x2="1183.1533" y1="352.2969" y2="352.2969"/></g><!--class MainPOSFrame--><g class="entity" data-entity="MainPOSFrame" data-source-line="9" data-uid="ent0008" id="entity_MainPOSFrame"><rect fill="#F1F1F1" height="48" rx="2.5" ry="2.5" style="stroke:#181818;stroke-width:0.5;" width="138.4082" x="821" y="437.2969"/><ellipse cx="836" cy="453.2969" fill="#ADD1B2" rx="11" ry="11" style="stroke:#181818;stroke-width:1;"/><path d="M838.9688,458.9375 Q838.3906,459.2344 837.75,459.375 Q837.1094,459.5313 836.4063,459.5313 Q833.9063,459.5313 832.5781,457.8906 Q831.2656,456.2344 831.2656,453.1094 Q831.2656,449.9844 832.5781,448.3281 Q833.9063,446.6719 836.4063,446.6719 Q837.1094,446.6719 837.75,446.8281 Q838.4063,446.9844 838.9688,447.2813 L838.9688,450 Q838.3438,449.4219 837.75,449.1563 Q837.1563,448.875 836.5313,448.875 Q835.1875,448.875 834.5,449.9531 Q833.8125,451.0156 833.8125,453.1094 Q833.8125,455.2031 834.5,456.2813 Q835.1875,457.3438 836.5313,457.3438 Q837.1563,457.3438 837.75,457.0781 Q838.3438,456.7969 838.9688,456.2188 L838.9688,458.9375 Z " fill="#000000"/><text fill="#000000" font-family="sans-serif" font-size="14" lengthAdjust="spacing" textLength="106.4082" x="850" y="458.1436">MainPOSFrame</text><line style="stroke:#181818;stroke-width:0.5;" x1="822" x2="958.4082" y1="469.2969" y2="469.2969"/><line style="stroke:#181818;stroke-width:0.5;" x1="822" x2="958.4082" y1="477.2969" y2="477.2969"/></g><!--class MainSalesFrame--><g class="entity" data-entity="MainSalesFrame" data-source-line="10" data-uid="ent0009" id="entity_MainSalesFrame"><rect fill="#F1F1F1" height="48" rx="2.5" ry="2.5" style="stroke:#181818;stroke-width:0.5;" width="147.3223" x="1241.5" y="562.2969"/><ellipse cx="1256.5" cy="578.2969" fill="#ADD1B2" rx="11" ry="11" style="stroke:#181818;stroke-width:1;"/><path d="M1259.4688,583.9375 Q1258.8906,584.2344 1258.25,584.375 Q1257.6094,584.5313 1256.9063,584.5313 Q1254.4063,584.5313 1253.0781,582.8906 Q1251.7656,581.2344 1251.7656,578.1094 Q1251.7656,574.9844 1253.0781,573.3281 Q1254.4063,571.6719 1256.9063,571.6719 Q1257.6094,571.6719 1258.25,571.8281 Q1258.9063,571.9844 1259.4688,572.2813 L1259.4688,575 Q1258.8438,574.4219 1258.25,574.1563 Q1257.6563,573.875 1257.0313,573.875 Q1255.6875,573.875 1255,574.9531 Q1254.3125,576.0156 1254.3125,578.1094 Q1254.3125,580.2031 1255,581.2813 Q1255.6875,582.3438 1257.0313,582.3438 Q1257.6563,582.3438 1258.25,582.0781 Q1258.8438,581.7969 1259.4688,581.2188 L1259.4688,583.9375 Z " fill="#000000"/><text fill="#000000" font-family="sans-serif" font-size="14" lengthAdjust="spacing" textLength="115.3223" x="1270.5" y="583.1436">MainSalesFrame</text><line style="stroke:#181818;stroke-width:0.5;" x1="1242.5" x2="1387.8223" y1="594.2969" y2="594.2969"/><line style="stroke:#181818;stroke-width:0.5;" x1="1242.5" x2="1387.8223" y1="602.2969" y2="602.2969"/></g><!--class ProductManagementFrame--><g class="entity" data-entity="ProductManagementFrame" data-source-line="11" data-uid="ent0010" id="entity_ProductManagementFrame"><rect fill="#F1F1F1" height="48" rx="2.5" ry="2.5" style="stroke:#181818;stroke-width:0.5;" width="222.5723" x="983.5" y="562.2969"/><ellipse cx="998.5" cy="578.2969" fill="#ADD1B2" rx="11" ry="11" style="stroke:#181818;stroke-width:1;"/><path d="M1001.4688,583.9375 Q1000.8906,584.2344 1000.25,584.375 Q999.6094,584.5313 998.9063,584.5313 Q996.4063,584.5313 995.0781,582.8906 Q993.7656,581.2344 993.7656,578.1094 Q993.7656,574.9844 995.0781,573.3281 Q996.4063,571.6719 998.9063,571.6719 Q999.6094,571.6719 1000.25,571.8281 Q1000.9063,571.9844 1001.4688,572.2813 L1001.4688,575 Q1000.8438,574.4219 1000.25,574.1563 Q999.6563,573.875 999.0313,573.875 Q997.6875,573.875 997,574.9531 Q996.3125,576.0156 996.3125,578.1094 Q996.3125,580.2031 997,581.2813 Q997.6875,582.3438 999.0313,582.3438 Q999.6563,582.3438 1000.25,582.0781 Q1000.8438,581.7969 1001.4688,581.2188 L1001.4688,583.9375 Z " fill="#000000"/><text fill="#000000" font-family="sans-serif" font-size="14" lengthAdjust="spacing" textLength="190.5723" x="1012.5" y="583.1436">ProductManagementFrame</text><line style="stroke:#181818;stroke-width:0.5;" x1="984.5" x2="1205.0723" y1="594.2969" y2="594.2969"/><line style="stroke:#181818;stroke-width:0.5;" x1="984.5" x2="1205.0723" y1="602.2969" y2="602.2969"/></g><!--class ReportsFrame--><g class="entity" data-entity="ReportsFrame" data-source-line="12" data-uid="ent0011" id="entity_ReportsFrame"><rect fill="#F1F1F1" height="48" rx="2.5" ry="2.5" style="stroke:#181818;stroke-width:0.5;" width="130.9707" x="443.5" y="437.2969"/><ellipse cx="458.5" cy="453.2969" fill="#ADD1B2" rx="11" ry="11" style="stroke:#181818;stroke-width:1;"/><path d="M461.4688,458.9375 Q460.8906,459.2344 460.25,459.375 Q459.6094,459.5313 458.9063,459.5313 Q456.4063,459.5313 455.0781,457.8906 Q453.7656,456.2344 453.7656,453.1094 Q453.7656,449.9844 455.0781,448.3281 Q456.4063,446.6719 458.9063,446.6719 Q459.6094,446.6719 460.25,446.8281 Q460.9063,446.9844 461.4688,447.2813 L461.4688,450 Q460.8438,449.4219 460.25,449.1563 Q459.6563,448.875 459.0313,448.875 Q457.6875,448.875 457,449.9531 Q456.3125,451.0156 456.3125,453.1094 Q456.3125,455.2031 457,456.2813 Q457.6875,457.3438 459.0313,457.3438 Q459.6563,457.3438 460.25,457.0781 Q460.8438,456.7969 461.4688,456.2188 L461.4688,458.9375 Z " fill="#000000"/><text fill="#000000" font-family="sans-serif" font-size="14" lengthAdjust="spacing" textLength="98.9707" x="472.5" y="458.1436">ReportsFrame</text><line style="stroke:#181818;stroke-width:0.5;" x1="444.5" x2="573.4707" y1="469.2969" y2="469.2969"/><line style="stroke:#181818;stroke-width:0.5;" x1="444.5" x2="573.4707" y1="477.2969" y2="477.2969"/></g><!--class SalesHistoryFrame--><g class="entity" data-entity="SalesHistoryFrame" data-source-line="13" data-uid="ent0012" id="entity_SalesHistoryFrame"><rect fill="#F1F1F1" height="48" rx="2.5" ry="2.5" style="stroke:#181818;stroke-width:0.5;" width="163.708" x="227" y="562.2969"/><ellipse cx="242" cy="578.2969" fill="#ADD1B2" rx="11" ry="11" style="stroke:#181818;stroke-width:1;"/><path d="M244.9688,583.9375 Q244.3906,584.2344 243.75,584.375 Q243.1094,584.5313 242.4063,584.5313 Q239.9063,584.5313 238.5781,582.8906 Q237.2656,581.2344 237.2656,578.1094 Q237.2656,574.9844 238.5781,573.3281 Q239.9063,571.6719 242.4063,571.6719 Q243.1094,571.6719 243.75,571.8281 Q244.4063,571.9844 244.9688,572.2813 L244.9688,575 Q244.3438,574.4219 243.75,574.1563 Q243.1563,573.875 242.5313,573.875 Q241.1875,573.875 240.5,574.9531 Q239.8125,576.0156 239.8125,578.1094 Q239.8125,580.2031 240.5,581.2813 Q241.1875,582.3438 242.5313,582.3438 Q243.1563,582.3438 243.75,582.0781 Q244.3438,581.7969 244.9688,581.2188 L244.9688,583.9375 Z " fill="#000000"/><text fill="#000000" font-family="sans-serif" font-size="14" lengthAdjust="spacing" textLength="131.708" x="256" y="583.1436">SalesHistoryFrame</text><line style="stroke:#181818;stroke-width:0.5;" x1="228" x2="389.708" y1="594.2969" y2="594.2969"/><line style="stroke:#181818;stroke-width:0.5;" x1="228" x2="389.708" y1="602.2969" y2="602.2969"/></g><!--class SettingsFrame--><g class="entity" data-entity="SettingsFrame" data-source-line="14" data-uid="ent0013" id="entity_SettingsFrame"><rect fill="#F1F1F1" height="48" rx="2.5" ry="2.5" style="stroke:#181818;stroke-width:0.5;" width="134.0605" x="426" y="562.2969"/><ellipse cx="441" cy="578.2969" fill="#ADD1B2" rx="11" ry="11" style="stroke:#181818;stroke-width:1;"/><path d="M443.9688,583.9375 Q443.3906,584.2344 442.75,584.375 Q442.1094,584.5313 441.4063,584.5313 Q438.9063,584.5313 437.5781,582.8906 Q436.2656,581.2344 436.2656,578.1094 Q436.2656,574.9844 437.5781,573.3281 Q438.9063,571.6719 441.4063,571.6719 Q442.1094,571.6719 442.75,571.8281 Q443.4063,571.9844 443.9688,572.2813 L443.9688,575 Q443.3438,574.4219 442.75,574.1563 Q442.1563,573.875 441.5313,573.875 Q440.1875,573.875 439.5,574.9531 Q438.8125,576.0156 438.8125,578.1094 Q438.8125,580.2031 439.5,581.2813 Q440.1875,582.3438 441.5313,582.3438 Q442.1563,582.3438 442.75,582.0781 Q443.3438,581.7969 443.9688,581.2188 L443.9688,583.9375 Z " fill="#000000"/><text fill="#000000" font-family="sans-serif" font-size="14" lengthAdjust="spacing" textLength="102.0605" x="455" y="583.1436">SettingsFrame</text><line style="stroke:#181818;stroke-width:0.5;" x1="427" x2="559.0605" y1="594.2969" y2="594.2969"/><line style="stroke:#181818;stroke-width:0.5;" x1="427" x2="559.0605" y1="602.2969" y2="602.2969"/></g><!--class UserManagementFrame--><g class="entity" data-entity="UserManagementFrame" data-source-line="15" data-uid="ent0014" id="entity_UserManagementFrame"><rect fill="#F1F1F1" height="48" rx="2.5" ry="2.5" style="stroke:#181818;stroke-width:0.5;" width="200.7725" x="595.5" y="562.2969"/><ellipse cx="610.5" cy="578.2969" fill="#ADD1B2" rx="11" ry="11" style="stroke:#181818;stroke-width:1;"/><path d="M613.4688,583.9375 Q612.8906,584.2344 612.25,584.375 Q611.6094,584.5313 610.9063,584.5313 Q608.4063,584.5313 607.0781,582.8906 Q605.7656,581.2344 605.7656,578.1094 Q605.7656,574.9844 607.0781,573.3281 Q608.4063,571.6719 610.9063,571.6719 Q611.6094,571.6719 612.25,571.8281 Q612.9063,571.9844 613.4688,572.2813 L613.4688,575 Q612.8438,574.4219 612.25,574.1563 Q611.6563,573.875 611.0313,573.875 Q609.6875,573.875 609,574.9531 Q608.3125,576.0156 608.3125,578.1094 Q608.3125,580.2031 609,581.2813 Q609.6875,582.3438 611.0313,582.3438 Q611.6563,582.3438 612.25,582.0781 Q612.8438,581.7969 613.4688,581.2188 L613.4688,583.9375 Z " fill="#000000"/><text fill="#000000" font-family="sans-serif" font-size="14" lengthAdjust="spacing" textLength="168.7725" x="624.5" y="583.1436">UserManagementFrame</text><line style="stroke:#181818;stroke-width:0.5;" x1="596.5" x2="795.2725" y1="594.2969" y2="594.2969"/><line style="stroke:#181818;stroke-width:0.5;" x1="596.5" x2="795.2725" y1="602.2969" y2="602.2969"/></g><!--class ClientFrame--><g class="entity" data-entity="ClientFrame" data-source-line="16" data-uid="ent0015" id="entity_ClientFrame"><rect fill="#F1F1F1" height="48" rx="2.5" ry="2.5" style="stroke:#181818;stroke-width:0.5;" width="117.1689" x="831.5" y="562.2969"/><ellipse cx="846.5" cy="578.2969" fill="#ADD1B2" rx="11" ry="11" style="stroke:#181818;stroke-width:1;"/><path d="M849.4688,583.9375 Q848.8906,584.2344 848.25,584.375 Q847.6094,584.5313 846.9063,584.5313 Q844.4063,584.5313 843.0781,582.8906 Q841.7656,581.2344 841.7656,578.1094 Q841.7656,574.9844 843.0781,573.3281 Q844.4063,571.6719 846.9063,571.6719 Q847.6094,571.6719 848.25,571.8281 Q848.9063,571.9844 849.4688,572.2813 L849.4688,575 Q848.8438,574.4219 848.25,574.1563 Q847.6563,573.875 847.0313,573.875 Q845.6875,573.875 845,574.9531 Q844.3125,576.0156 844.3125,578.1094 Q844.3125,580.2031 845,581.2813 Q845.6875,582.3438 847.0313,582.3438 Q847.6563,582.3438 848.25,582.0781 Q848.8438,581.7969 849.4688,581.2188 L849.4688,583.9375 Z " fill="#000000"/><text fill="#000000" font-family="sans-serif" font-size="14" lengthAdjust="spacing" textLength="85.1689" x="860.5" y="583.1436">ClientFrame</text><line style="stroke:#181818;stroke-width:0.5;" x1="832.5" x2="947.6689" y1="594.2969" y2="594.2969"/><line style="stroke:#181818;stroke-width:0.5;" x1="832.5" x2="947.6689" y1="602.2969" y2="602.2969"/></g><!--class ProductDAO--><g class="entity" data-entity="ProductDAO" data-source-line="20" data-uid="ent0017" id="entity_ProductDAO"><rect fill="#F1F1F1" height="48" rx="2.5" ry="2.5" style="stroke:#181818;stroke-width:0.5;" width="117.0869" x="1714.5" y="710.2969"/><ellipse cx="1729.5" cy="726.2969" fill="#ADD1B2" rx="11" ry="11" style="stroke:#181818;stroke-width:1;"/><path d="M1732.4688,731.9375 Q1731.8906,732.2344 1731.25,732.375 Q1730.6094,732.5313 1729.9063,732.5313 Q1727.4063,732.5313 1726.0781,730.8906 Q1724.7656,729.2344 1724.7656,726.1094 Q1724.7656,722.9844 1726.0781,721.3281 Q1727.4063,719.6719 1729.9063,719.6719 Q1730.6094,719.6719 1731.25,719.8281 Q1731.9063,719.9844 1732.4688,720.2813 L1732.4688,723 Q1731.8438,722.4219 1731.25,722.1563 Q1730.6563,721.875 1730.0313,721.875 Q1728.6875,721.875 1728,722.9531 Q1727.3125,724.0156 1727.3125,726.1094 Q1727.3125,728.2031 1728,729.2813 Q1728.6875,730.3438 1730.0313,730.3438 Q1730.6563,730.3438 1731.25,730.0781 Q1731.8438,729.7969 1732.4688,729.2188 L1732.4688,731.9375 Z " fill="#000000"/><text fill="#000000" font-family="sans-serif" font-size="14" lengthAdjust="spacing" textLength="85.0869" x="1743.5" y="731.1436">ProductDAO</text><line style="stroke:#181818;stroke-width:0.5;" x1="1715.5" x2="1830.5869" y1="742.2969" y2="742.2969"/><line style="stroke:#181818;stroke-width:0.5;" x1="1715.5" x2="1830.5869" y1="750.2969" y2="750.2969"/></g><!--class SaleDAO--><g class="entity" data-entity="SaleDAO" data-source-line="21" data-uid="ent0018" id="entity_SaleDAO"><rect fill="#F1F1F1" height="48" rx="2.5" ry="2.5" style="stroke:#181818;stroke-width:0.5;" width="93.3457" x="1586.5" y="710.2969"/><ellipse cx="1601.5" cy="726.2969" fill="#ADD1B2" rx="11" ry="11" style="stroke:#181818;stroke-width:1;"/><path d="M1604.4688,731.9375 Q1603.8906,732.2344 1603.25,732.375 Q1602.6094,732.5313 1601.9063,732.5313 Q1599.4063,732.5313 1598.0781,730.8906 Q1596.7656,729.2344 1596.7656,726.1094 Q1596.7656,722.9844 1598.0781,721.3281 Q1599.4063,719.6719 1601.9063,719.6719 Q1602.6094,719.6719 1603.25,719.8281 Q1603.9063,719.9844 1604.4688,720.2813 L1604.4688,723 Q1603.8438,722.4219 1603.25,722.1563 Q1602.6563,721.875 1602.0313,721.875 Q1600.6875,721.875 1600,722.9531 Q1599.3125,724.0156 1599.3125,726.1094 Q1599.3125,728.2031 1600,729.2813 Q1600.6875,730.3438 1602.0313,730.3438 Q1602.6563,730.3438 1603.25,730.0781 Q1603.8438,729.7969 1604.4688,729.2188 L1604.4688,731.9375 Z " fill="#000000"/><text fill="#000000" font-family="sans-serif" font-size="14" lengthAdjust="spacing" textLength="61.3457" x="1615.5" y="731.1436">SaleDAO</text><line style="stroke:#181818;stroke-width:0.5;" x1="1587.5" x2="1678.8457" y1="742.2969" y2="742.2969"/><line style="stroke:#181818;stroke-width:0.5;" x1="1587.5" x2="1678.8457" y1="750.2969" y2="750.2969"/></g><!--class Product--><g class="entity" data-entity="Product" data-source-line="25" data-uid="ent0020" id="entity_Product"><rect fill="#F1F1F1" height="48" rx="2.5" ry="2.5" style="stroke:#181818;stroke-width:0.5;" width="85.71" x="1726" y="862.2969"/><ellipse cx="1741" cy="878.2969" fill="#ADD1B2" rx="11" ry="11" style="stroke:#181818;stroke-width:1;"/><path d="M1743.9688,883.9375 Q1743.3906,884.2344 1742.75,884.375 Q1742.1094,884.5313 1741.4063,884.5313 Q1738.9063,884.5313 1737.5781,882.8906 Q1736.2656,881.2344 1736.2656,878.1094 Q1736.2656,874.9844 1737.5781,873.3281 Q1738.9063,871.6719 1741.4063,871.6719 Q1742.1094,871.6719 1742.75,871.8281 Q1743.4063,871.9844 1743.9688,872.2813 L1743.9688,875 Q1743.3438,874.4219 1742.75,874.1563 Q1742.1563,873.875 1741.5313,873.875 Q1740.1875,873.875 1739.5,874.9531 Q1738.8125,876.0156 1738.8125,878.1094 Q1738.8125,880.2031 1739.5,881.2813 Q1740.1875,882.3438 1741.5313,882.3438 Q1742.1563,882.3438 1742.75,882.0781 Q1743.3438,881.7969 1743.9688,881.2188 L1743.9688,883.9375 Z " fill="#000000"/><text fill="#000000" font-family="sans-serif" font-size="14" lengthAdjust="spacing" textLength="53.71" x="1755" y="883.1436">Product</text><line style="stroke:#181818;stroke-width:0.5;" x1="1727" x2="1810.71" y1="894.2969" y2="894.2969"/><line style="stroke:#181818;stroke-width:0.5;" x1="1727" x2="1810.71" y1="902.2969" y2="902.2969"/></g><!--class DBConnection--><g class="entity" data-entity="DBConnection" data-source-line="29" data-uid="ent0022" id="entity_DBConnection"><rect fill="#F1F1F1" height="56.2656" rx="2.5" ry="2.5" style="stroke:#181818;stroke-width:0.5;" width="131.5996" x="1013" y="858.2969"/><ellipse cx="1028" cy="878.4297" fill="#ADD1B2" rx="11" ry="11" style="stroke:#181818;stroke-width:1;"/><path d="M1030.9688,884.0703 Q1030.3906,884.3672 1029.75,884.5078 Q1029.1094,884.6641 1028.4063,884.6641 Q1025.9063,884.6641 1024.5781,883.0234 Q1023.2656,881.3672 1023.2656,878.2422 Q1023.2656,875.1172 1024.5781,873.4609 Q1025.9063,871.8047 1028.4063,871.8047 Q1029.1094,871.8047 1029.75,871.9609 Q1030.4063,872.1172 1030.9688,872.4141 L1030.9688,875.1328 Q1030.3438,874.5547 1029.75,874.2891 Q1029.1563,874.0078 1028.5313,874.0078 Q1027.1875,874.0078 1026.5,875.0859 Q1025.8125,876.1484 1025.8125,878.2422 Q1025.8125,880.3359 1026.5,881.4141 Q1027.1875,882.4766 1028.5313,882.4766 Q1029.1563,882.4766 1029.75,882.2109 Q1030.3438,881.9297 1030.9688,881.3516 L1030.9688,884.0703 Z " fill="#000000"/><text fill="#000000" font-family="sans-serif" font-size="12" font-style="italic" lengthAdjust="spacing" textLength="69.9902" x="1056.8047" y="874.4355">&#171;singleton&#187;</text><text fill="#000000" font-family="sans-serif" font-size="14" lengthAdjust="spacing" textLength="99.5996" x="1042" y="890.2607">DBConnection</text><line style="stroke:#181818;stroke-width:0.5;" x1="1014" x2="1143.5996" y1="898.5625" y2="898.5625"/><line style="stroke:#181818;stroke-width:0.5;" x1="1014" x2="1143.5996" y1="906.5625" y2="906.5625"/></g><g class="entity" data-entity="GMN45" data-source-line="61" data-uid="ent0046" id="entity_GMN45"><path d="M1925.5,866.2969 L1925.5,906.5625 L2152.6655,906.5625 L2152.6655,876.2969 L2142.6655,866.2969 L1925.5,866.2969" fill="#FEFFDD" style="stroke:#181818;stroke-width:0.5;"/><path d="M2142.6655,866.2969 L2142.6655,876.2969 L2152.6655,876.2969 L2142.6655,866.2969" fill="#FEFFDD" style="stroke:#181818;stroke-width:1;"/><text fill="#000000" font-family="sans-serif" font-size="13" lengthAdjust="spacing" textLength="166.1816" x="1931.5" y="883.3638">JDBC connection provider</text><text fill="#000000" font-family="sans-serif" font-size="13" lengthAdjust="spacing" textLength="206.1655" x="1931.5" y="898.4966">(DriverManager.getConnection)</text></g><!--link MainApp to LoginFrame--><g class="link" data-entity-1="MainApp" data-entity-2="LoginFrame" data-source-line="33" data-uid="lnk23" id="link_MainApp_LoginFrame"><path codeLine="33" d="M1127,212.4269 C1127,239.7669 1127,278.9769 1127,306.2669" fill="none" id="MainApp-to-LoginFrame" style="stroke:#181818;stroke-width:1;"/><polygon fill="#181818" points="1127,312.2669,1131,303.2669,1127,307.2669,1123,303.2669,1127,312.2669" style="stroke:#181818;stroke-width:1;"/><text fill="#000000" font-family="sans-serif" font-size="13" lengthAdjust="spacing" textLength="101.3403" x="1128" y="257.3638">creates / shows</text></g><!--link LoginFrame to DBConnection--><g class="link" data-entity-1="LoginFrame" data-entity-2="DBConnection" data-source-line="34" data-uid="lnk24" id="link_LoginFrame_DBConnection"><path codeLine="34" d="M1184.79,349.2069 C1394.44,394.7069 2090.91,567.1569 1863,807.2969 C1857.14,813.4669 1718.48,814.6069 1710,815.2969 C1503.47,832.1369 1265.9316,861.2362 1151.1516,875.9062" fill="none" id="LoginFrame-to-DBConnection" style="stroke:#181818;stroke-width:1;"/><polygon fill="#181818" points="1145.2,876.6669,1154.6345,879.4936,1150.1597,876.033,1153.6203,871.5581,1145.2,876.6669" style="stroke:#181818;stroke-width:1;"/><text fill="#000000" font-family="sans-serif" font-size="13" lengthAdjust="spacing" textLength="115.1846" x="1878" y="590.8638">authenticate user</text></g><!--link LoginFrame to MainPOSFrame--><g class="link" data-entity-1="LoginFrame" data-entity-2="MainPOSFrame" data-source-line="35" data-uid="lnk25" id="link_LoginFrame_MainPOSFrame"><path codeLine="35" d="M1082.42,360.4369 C1040.05,382.4269 982.0052,412.5423 939.7052,434.5023" fill="none" id="LoginFrame-to-MainPOSFrame" style="stroke:#181818;stroke-width:1;"/><polygon fill="#181818" points="934.38,437.2669,944.2108,436.6702,938.8176,434.9631,940.5247,429.5699,934.38,437.2669" style="stroke:#181818;stroke-width:1;"/><text fill="#000000" font-family="sans-serif" font-size="13" lengthAdjust="spacing" textLength="135.7446" x="1023" y="403.3638">opens (admin/menu)</text></g><!--link LoginFrame to MainSalesFrame--><g class="link" data-entity-1="LoginFrame" data-entity-2="MainSalesFrame" data-source-line="36" data-uid="lnk26" id="link_LoginFrame_MainSalesFrame"><path codeLine="36" d="M1144.69,360.6269 C1180.61,408.0169 1258.1051,510.2457 1293.8751,557.4257" fill="none" id="LoginFrame-to-MainSalesFrame" style="stroke:#181818;stroke-width:1;"/><polygon fill="#181818" points="1297.5,562.2069,1295.2501,552.6184,1294.4792,558.2225,1288.8751,557.4517,1297.5,562.2069" style="stroke:#181818;stroke-width:1;"/><text fill="#000000" font-family="sans-serif" font-size="13" lengthAdjust="spacing" textLength="102.7178" x="1237" y="465.8638">opens (caissier)</text></g><!--link LoginFrame to ReportsFrame--><g class="link" data-entity-1="LoginFrame" data-entity-2="ReportsFrame" data-source-line="37" data-uid="lnk27" id="link_LoginFrame_ReportsFrame"><path codeLine="37" d="M1069.29,348.2269 C1013.62,358.8169 927,375.4169 852,390.2969 C755.43,409.4569 649.5957,431.1819 580.5857,445.4519" fill="none" id="LoginFrame-to-ReportsFrame" style="stroke:#181818;stroke-width:1;"/><polygon fill="#181818" points="574.71,446.6669,584.3335,448.7615,579.6064,445.6544,582.7136,440.9273,574.71,446.6669" style="stroke:#181818;stroke-width:1;"/><text fill="#000000" font-family="sans-serif" font-size="13" lengthAdjust="spacing" textLength="132.6533" x="853" y="403.3638">opens (responsable)</text></g><!--link MainPOSFrame to ProductManagementFrame--><g class="link" data-entity-1="MainPOSFrame" data-entity-2="ProductManagementFrame" data-source-line="40" data-uid="lnk28" id="link_MainPOSFrame_ProductManagementFrame"><path codeLine="40" d="M928.56,485.4369 C965.21,507.4269 1014.8754,537.2193 1051.4654,559.1793" fill="none" id="MainPOSFrame-to-ProductManagementFrame" style="stroke:#181818;stroke-width:1;"/><polygon fill="#181818" points="1056.61,562.2669,1050.9515,554.2058,1052.3228,559.6939,1046.8347,561.0652,1056.61,562.2669" style="stroke:#181818;stroke-width:1;"/><text fill="#000000" font-family="sans-serif" font-size="13" lengthAdjust="spacing" textLength="39.2158" x="1005" y="528.3638">opens</text></g><!--link MainPOSFrame to MainSalesFrame--><g class="link" data-entity-1="MainPOSFrame" data-entity-2="MainSalesFrame" data-source-line="41" data-uid="lnk29" id="link_MainPOSFrame_MainSalesFrame"><path codeLine="41" d="M959.23,482.3369 C1036.73,504.7669 1156.0665,539.2988 1235.3965,562.2588" fill="none" id="MainPOSFrame-to-MainSalesFrame" style="stroke:#181818;stroke-width:1;"/><polygon fill="#181818" points="1241.16,563.9269,1233.6269,557.5824,1236.3571,562.5368,1231.4028,565.2671,1241.16,563.9269" style="stroke:#181818;stroke-width:1;"/><text fill="#000000" font-family="sans-serif" font-size="13" lengthAdjust="spacing" textLength="39.2158" x="1128" y="528.3638">opens</text></g><!--link MainPOSFrame to ClientFrame--><g class="link" data-entity-1="MainPOSFrame" data-entity-2="ClientFrame" data-source-line="42" data-uid="lnk30" id="link_MainPOSFrame_ClientFrame"><path codeLine="42" d="M890,485.4369 C890,507.4269 890,534.3069 890,556.2669" fill="none" id="MainPOSFrame-to-ClientFrame" style="stroke:#181818;stroke-width:1;"/><polygon fill="#181818" points="890,562.2669,894,553.2669,890,557.2669,886,553.2669,890,562.2669" style="stroke:#181818;stroke-width:1;"/><text fill="#000000" font-family="sans-serif" font-size="13" lengthAdjust="spacing" textLength="39.2158" x="891" y="528.3638">opens</text></g><!--link MainPOSFrame to SalesHistoryFrame--><g class="link" data-entity-1="MainPOSFrame" data-entity-2="SalesHistoryFrame" data-source-line="43" data-uid="lnk31" id="link_MainPOSFrame_SalesHistoryFrame"><path codeLine="43" d="M820.86,475.1969 C765.82,485.6069 686.86,500.8469 618,515.2969 C524.82,534.8469 501.84,541.1869 409,562.2969 C403.18,563.6169 403.0176,563.6434 396.9676,565.0334" fill="none" id="MainPOSFrame-to-SalesHistoryFrame" style="stroke:#181818;stroke-width:1;"/><polygon fill="#181818" points="391.12,566.3769,400.7871,568.26,395.993,565.2573,398.9958,560.4632,391.12,566.3769" style="stroke:#181818;stroke-width:1;"/><text fill="#000000" font-family="sans-serif" font-size="13" lengthAdjust="spacing" textLength="39.2158" x="619" y="528.3638">opens</text></g><!--link MainPOSFrame to UserManagementFrame--><g class="link" data-entity-1="MainPOSFrame" data-entity-2="UserManagementFrame" data-source-line="44" data-uid="lnk32" id="link_MainPOSFrame_UserManagementFrame"><path codeLine="44" d="M853.51,485.4369 C818.83,507.4269 772.0271,537.0937 737.3971,559.0537" fill="none" id="MainPOSFrame-to-UserManagementFrame" style="stroke:#181818;stroke-width:1;"/><polygon fill="#181818" points="732.33,562.2669,742.0728,560.8251,736.5526,559.5892,737.7885,554.069,732.33,562.2669" style="stroke:#181818;stroke-width:1;"/><text fill="#000000" font-family="sans-serif" font-size="13" lengthAdjust="spacing" textLength="39.2158" x="805" y="528.3638">opens</text></g><!--link MainPOSFrame to SettingsFrame--><g class="link" data-entity-1="MainPOSFrame" data-entity-2="SettingsFrame" data-source-line="45" data-uid="lnk33" id="link_MainPOSFrame_SettingsFrame"><path codeLine="45" d="M820.85,483.7169 C747.54,506.4369 638.2612,540.2911 565.7712,562.7511" fill="none" id="MainPOSFrame-to-SettingsFrame" style="stroke:#181818;stroke-width:1;"/><polygon fill="#181818" points="560.04,564.5269,569.8206,565.6841,564.816,563.0471,567.453,558.0425,560.04,564.5269" style="stroke:#181818;stroke-width:1;"/><text fill="#000000" font-family="sans-serif" font-size="13" lengthAdjust="spacing" textLength="39.2158" x="716" y="528.3638">opens</text></g><!--link MainSalesFrame to ProductDAO--><g class="link" data-entity-1="MainSalesFrame" data-entity-2="ProductDAO" data-source-line="48" data-uid="lnk34" id="link_MainSalesFrame_ProductDAO"><path codeLine="48" d="M1388.52,604.3269 C1455.85,619.6469 1558.36,642.2969 1648,659.2969 C1669.68,663.4069 1677.02,657.9269 1697,667.2969 C1718.52,677.3869 1734.4562,691.0668 1748.5762,705.7168" fill="none" id="MainSalesFrame-to-ProductDAO" style="stroke:#181818;stroke-width:1;"/><polygon fill="#181818" points="1752.74,710.0369,1749.3744,700.7809,1749.2702,706.4368,1743.6143,706.3326,1752.74,710.0369" style="stroke:#181818;stroke-width:1;"/><text fill="#000000" font-family="sans-serif" font-size="13" lengthAdjust="spacing" textLength="151.5566" x="1649" y="655.3638">getProductByBarcode()</text></g><!--link MainSalesFrame to DBConnection--><g class="link" data-entity-1="MainSalesFrame" data-entity-2="DBConnection" data-source-line="49" data-uid="lnk35" id="link_MainSalesFrame_DBConnection"><path codeLine="49" d="M1314.63,610.5669 C1312.87,649.9369 1304.19,730.4369 1264,782.2969 C1234.05,820.9469 1190.8434,844.9655 1150.8934,861.3055" fill="none" id="MainSalesFrame-to-DBConnection" style="stroke:#181818;stroke-width:1;"/><polygon fill="#181818" points="1145.34,863.5769,1155.1844,863.872,1149.9679,861.684,1152.1559,856.4675,1145.34,863.5769" style="stroke:#181818;stroke-width:1;"/><text fill="#000000" font-family="sans-serif" font-size="13" lengthAdjust="spacing" textLength="234.5649" x="1309" y="738.8638">insert Vente / save sale (direct SQL)</text></g><!--link ProductDAO to DBConnection--><g class="link" data-entity-1="ProductDAO" data-entity-2="DBConnection" data-source-line="50" data-uid="lnk36" id="link_ProductDAO_DBConnection"><path codeLine="50" d="M1741.44,758.3869 C1728.27,767.0469 1712.46,776.2569 1697,782.2969 C1683.4,787.6169 1582.38,804.7569 1568,807.2969 C1417.1,833.9469 1245.1932,860.4041 1151.0932,874.5641" fill="none" id="ProductDAO-to-DBConnection" style="stroke:#181818;stroke-width:1;"/><polygon fill="#181818" points="1145.16,875.4569,1154.655,878.0731,1150.1043,874.7129,1153.4646,870.1622,1145.16,875.4569" style="stroke:#181818;stroke-width:1;"/><text fill="#000000" font-family="sans-serif" font-size="13" lengthAdjust="spacing" textLength="98.687" x="1660" y="803.3638">queries Produit</text></g><!--link ProductDAO to Product--><g class="link" data-entity-1="ProductDAO" data-entity-2="Product" data-source-line="51" data-uid="lnk37" id="link_ProductDAO_Product"><path codeLine="51" d="M1772.38,758.4069 C1771.63,786.5069 1770.5415,827.689 1769.7815,855.919" fill="none" id="ProductDAO-to-Product" style="stroke:#181818;stroke-width:1;"/><polygon fill="#181818" points="1769.62,861.9169,1773.8608,853.0278,1769.7546,856.9187,1765.8637,852.8125,1769.62,861.9169" style="stroke:#181818;stroke-width:1;"/><text fill="#000000" font-family="sans-serif" font-size="13" lengthAdjust="spacing" textLength="91.6475" x="1772" y="803.3638">returns model</text></g><!--link SaleDAO to DBConnection--><g class="link" data-entity-1="SaleDAO" data-entity-2="DBConnection" data-source-line="52" data-uid="lnk38" id="link_SaleDAO_DBConnection"><path codeLine="52" d="M1604.15,758.4569 C1591.13,767.5869 1575.08,777.1169 1559,782.2969 C1529.76,791.7269 1451.3,785.2669 1421,790.2969 C1323.28,806.5069 1219.1268,837.9335 1150.9168,860.4835" fill="none" id="SaleDAO-to-DBConnection" style="stroke:#181818;stroke-width:1;"/><polygon fill="#181818" points="1145.22,862.3669,1155.0207,863.3397,1149.9673,860.7974,1152.5096,855.744,1145.22,862.3669" style="stroke:#181818;stroke-width:1;"/><text fill="#000000" font-family="sans-serif" font-size="13" lengthAdjust="spacing" textLength="141.9209" x="1422" y="803.3638">creates Vente (utility)</text></g><!--link ProductManagementFrame to DBConnection--><g class="link" data-entity-1="ProductManagementFrame" data-entity-2="DBConnection" data-source-line="53" data-uid="lnk39" id="link_ProductManagementFrame_DBConnection"><path codeLine="53" d="M1093.74,610.6769 C1090.82,665.1569 1083.8926,794.2656 1080.7726,852.2156" fill="none" id="ProductManagementFrame-to-DBConnection" style="stroke:#181818;stroke-width:1;"/><polygon fill="#181818" points="1080.45,858.2069,1084.9281,849.4349,1080.7188,853.2141,1076.9396,849.0048,1080.45,858.2069" style="stroke:#181818;stroke-width:1;"/><text fill="#000000" font-family="sans-serif" font-size="13" lengthAdjust="spacing" textLength="164.0488" x="1091" y="738.8638">CRUD Produit / Categorie</text></g><!--link ReportsFrame to DBConnection--><g class="link" data-entity-1="ReportsFrame" data-entity-2="DBConnection" data-source-line="54" data-uid="lnk40" id="link_ReportsFrame_DBConnection"><path codeLine="54" d="M443.21,466.9569 C344.46,478.0569 162.54,515.5969 97,642.2969 C66.94,700.4069 49.76,641.0969 193,782.2969 C206.1,795.2169 208.84,800.6469 226,807.2969 C369.51,862.9169 832.6519,879.4375 1006.9819,883.7775" fill="none" id="ReportsFrame-to-DBConnection" style="stroke:#181818;stroke-width:1;"/><polygon fill="#181818" points="1012.98,883.9269,1004.0823,879.7041,1007.9815,883.8024,1003.8832,887.7016,1012.98,883.9269" style="stroke:#181818;stroke-width:1;"/><text fill="#000000" font-family="sans-serif" font-size="13" lengthAdjust="spacing" textLength="119.4756" x="98" y="655.3638">aggregate queries</text></g><!--link SalesHistoryFrame to DBConnection--><g class="link" data-entity-1="SalesHistoryFrame" data-entity-2="DBConnection" data-source-line="55" data-uid="lnk41" id="link_SalesHistoryFrame_DBConnection"><path codeLine="55" d="M271.62,610.5869 C252.96,624.4969 232.23,643.9969 222,667.2969 C201.46,714.0969 188.08,744.0569 222,782.2969 C274.36,841.3269 814.6971,872.6551 1006.7171,882.0051" fill="none" id="SalesHistoryFrame-to-DBConnection" style="stroke:#181818;stroke-width:1;"/><polygon fill="#181818" points="1012.71,882.2969,1003.9152,877.8639,1007.7159,882.0537,1003.5261,885.8544,1012.71,882.2969" style="stroke:#181818;stroke-width:1;"/><text fill="#000000" font-family="sans-serif" font-size="13" lengthAdjust="spacing" textLength="178.9785" x="223" y="738.8638">read Vente / join Utilisateur</text></g><!--link SettingsFrame to DBConnection--><g class="link" data-entity-1="SettingsFrame" data-entity-2="DBConnection" data-source-line="56" data-uid="lnk42" id="link_SettingsFrame_DBConnection"><path codeLine="56" d="M467.71,610.5769 C453.65,625.2869 437.52,645.5769 430,667.2969 C413.27,715.5869 396.81,743.4269 430,782.2969 C504.54,869.5969 856.9705,883.2224 1006.8705,885.0824" fill="none" id="SettingsFrame-to-DBConnection" style="stroke:#181818;stroke-width:1;"/><polygon fill="#181818" points="1012.87,885.1569,1003.9203,881.0455,1007.8704,885.0948,1003.8211,889.0449,1012.87,885.1569" style="stroke:#181818;stroke-width:1;"/><text fill="#000000" font-family="sans-serif" font-size="13" lengthAdjust="spacing" textLength="283.8926" x="431" y="738.8638">read/update Settings, Categorie, Utilisateur</text></g><!--link UserManagementFrame to DBConnection--><g class="link" data-entity-1="UserManagementFrame" data-entity-2="DBConnection" data-source-line="57" data-uid="lnk43" id="link_UserManagementFrame_DBConnection"><path codeLine="57" d="M702.41,610.5769 C714.71,651.0569 745.35,734.6269 800,782.2969 C860.9,835.4069 945.7349,860.8589 1007.0449,873.5689" fill="none" id="UserManagementFrame-to-DBConnection" style="stroke:#181818;stroke-width:1;"/><polygon fill="#181818" points="1012.92,874.7869,1004.9193,869.0432,1008.0241,873.7719,1003.2954,876.8767,1012.92,874.7869" style="stroke:#181818;stroke-width:1;"/><text fill="#000000" font-family="sans-serif" font-size="13" lengthAdjust="spacing" textLength="100.5596" x="801" y="738.8638">read Utilisateur</text></g><!--link ClientFrame to DBConnection--><g class="link" data-entity-1="ClientFrame" data-entity-2="DBConnection" data-source-line="58" data-uid="lnk44" id="link_ClientFrame_DBConnection"><path codeLine="58" d="M894.62,610.3369 C903.11,648.6669 923.92,726.7969 962,782.2969 C982.67,812.4269 1009.2682,835.8193 1034.3482,854.6093" fill="none" id="ClientFrame-to-DBConnection" style="stroke:#181818;stroke-width:1;"/><polygon fill="#181818" points="1039.15,858.2069,1034.3456,849.6093,1035.1485,855.2089,1029.5489,856.0118,1039.15,858.2069" style="stroke:#181818;stroke-width:1;"/><text fill="#000000" font-family="sans-serif" font-size="13" lengthAdjust="spacing" textLength="112.7725" x="963" y="738.8638">read/insert Client</text></g><!--link DBConnection to GMN45--><g class="link" data-entity-1="DBConnection" data-entity-2="GMN45" data-source-line="61" data-uid="lnk47" id="link_DBConnection_GMN45"><path d="M1145.5,864.9969 C1274.5,826.6269 1567.45,753.8569 1810.5,798.7969 C1879.84,811.6169 1955.33,844.6069 1999.84,866.2069" fill="none" id="DBConnection-GMN45" style="stroke:#181818;stroke-width:1;stroke-dasharray:7,7;"/></g><!--SRC=[VLN1Rjim3BthAuXUbW1DSY-A06c2eHXQj6kGNGTDvXnsjkH9iejWsB-FIXnRTfHT34XwZteadsXFla1uVTb-VxNc7PM76JnIlfyLs601Awlsv7cxjYX49TKlcIFSA5FEA-FcfIHz0ty4W2gaS_3CwrLLYRy9R4Fu4MEVJ4xwivKb3kWivN9pAmjqmssMczNAFqlDjvIe_V3u3IjZ_OXp3FD8pXjx69sWzwJp4Nxdq5wxO5rGjvTADvCcphQLkrcz3DI4TOfTcWoB13y9LaPhRX6PGIys3-jk7-xl7QTNe3TwkGn1Fe6oA8zd2z2oeVou46q7OJPRHXs2knCS7QFTtdmu4Hq6xE2sEv2rttDvI347QYxZ61-tcl6cGkrW8hEIz8ABNKzJXDu6FKL9SexGNX1Y1_HmYwuosiaV1Kv35OA38LmuBa8dBiHAc-qSzHAV5dk9Yqnq7NJXsklGX67_4pVsV0VZccJIIv1AeJkneaoYOh1rcPIZRzSFXmTf5VjsCasnHWOXpL8zV6EP63mb6-GFZw99HZQCeUtNfwc8hah4-5sZ9MpV1lankbqoq2BFB-x-yLM9zjsb8fvDVf8rgJqLv0-TZd5f4n7MRxlDMH3djUPmkM6LOc37r8l9SujvU2vjMkAoxmaQ2ywwAhuRDlCkY7OSgBPYsE8hz4LTPU7UC_YsLtqxY9PorpL9CIzs-JKDhHzEK26qOK6M_qCUpCy1WUVR5rv3F_IWigQXZ6SCm6HZgJchj7DsPy-S2jGPXCZ_0000]--></g></svg>